<?xml version="1.0" encoding="UTF-8" standalone="no"?>
<!-- Uploaded to: SVG Repo, www.svgrepo.com, Generator: SVG Repo Mixer Tools -->

<svg
   width="800px"
   height="800px"
   viewBox="0 0 24 24"
   fill="none"
   version="1.1"
   id="svg1"
   sodipodi:docname="github.svg"
   inkscape:version="1.4.3 (0d15f75, 2025-12-25)"
   xmlns:inkscape="http://www.inkscape.org/namespaces/inkscape"
   xmlns:sodipodi="http://sodipodi.sourceforge.net/DTD/sodipodi-0.dtd"
   xmlns="http://www.w3.org/2000/svg"
   xmlns:svg="http://www.w3.org/2000/svg">
  <defs
     id="defs1" />
  <sodipodi:namedview
     id="namedview1"
     pagecolor="#505050"
     bordercolor="#eeeeee"
     borderopacity="1"
     inkscape:showpageshadow="0"
     inkscape:pageopacity="0"
     inkscape:pagecheckerboard="0"
     inkscape:deskcolor="#505050"
     inkscape:zoom="0.715"
     inkscape:cx="400.6993"
     inkscape:cy="400"
     inkscape:window-width="1366"
     inkscape:window-height="745"
     inkscape:window-x="-8"
     inkscape:window-y="135"
     inkscape:window-maximized="1"
     inkscape:current-layer="svg1" />
  <path
     d="m 8.0277766,19.309217 c 0,0.104964 -0.104964,0.179938 -0.254912,0.179938 -0.149949,0 -0.269907,0 -0.269907,-0.179938 0,-0.179938 0.119958,-0.179938 0.254912,-0.179938 0.134954,0 0.269907,0.07497 0.269907,0.179938 z m -1.499485,-0.224923 c 0,0.104964 0,0.224923 0.209928,0.254913 0.0537,0.02579 0.115431,0.02924 0.171646,0.0096 0.05623,-0.01964 0.10234,-0.06088 0.128251,-0.11456 0,-0.104964 0,-0.209928 -0.209928,-0.254913 -0.209927,-0.04498 -0.269907,0 -0.299897,0.104964 z m 2.129269,-0.07497 c -0.134954,0 -0.224923,0.119959 -0.209928,0.239918 0.015,0.119958 0.134954,0.164943 0.284902,0.134953 0.149949,-0.02999 0.224923,-0.134953 0.209928,-0.239917 -0.015,-0.104964 -0.134954,-0.149949 -0.284902,-0.134954 z M 11.851418,-0.00411706 C 10.270062,-0.01900696 8.7019306,0.28574834 7.2412066,0.89185514 5.780484,1.4979618 4.4572636,2.3929293 3.3509437,3.523046 2.2446389,4.6531627 1.3780416,5.9951416 0.80316913,7.4684299 c -0.5748724,1.473304 -0.8461892,3.0475081 -0.7976359,4.6282651 -0.041866,2.589461 0.7260955,5.127339 2.19659527,7.259156 1.4704997,2.131818 3.5701083,3.751111 6.0055861,4.631759 0.614789,0.104964 0.839667,-0.284902 0.839667,-0.599794 0,-0.314892 0,-2.00931 0,-2.99897 0,0 -3.3887907,0.749743 -4.1085434,-1.499485 0,0 -0.5398146,-1.499484 -1.3345415,-1.814376 0,0 -1.1096187,-0.779732 0.074974,-0.764737 0.3879767,0.05233 0.7582895,0.194933 1.0812035,0.416256 0.3229141,0.221324 0.5894325,0.515373 0.7781577,0.858306 0.1568911,0.307544 0.3749761,0.57985 0.6408647,0.799975 0.265874,0.220274 0.573958,0.383868 0.905329,0.480735 0.331386,0.09687 0.679057,0.125057 1.021704,0.08277 0.342647,-0.04228 0.673029,-0.154297 0.970842,-0.328837 0.05683,-0.626035 0.326737,-1.213533 0.764737,-1.664428 -2.699028,-0.314892 -5.4280903,-0.704758 -5.4280903,-5.488114 -0.02867,-0.540415 0.05815,-1.080679 0.2546425,-1.5848061 0.1965075,-0.504127 0.4981888,-0.960705 0.8849659,-1.33916 -0.3649146,-1.097668 -0.3223292,-2.290013 0.1199588,-3.3588456 1.0196501,-0.3298867 3.3438061,1.3345416 3.3438061,1.3345416 1.9856184,-0.5600127 4.0874464,-0.5600127 6.0729144,0 0,0 2.324201,-1.6644283 3.343851,-1.3345416 0.451944,1.0667336 0.49453,2.2626026 0.119958,3.3588456 0.400513,0.373237 0.718104,0.826336 0.93253,1.330013 0.214276,0.5036771 0.32059,1.0466411 0.312043,1.5939531 0,4.798351 -2.849021,5.173222 -5.548094,5.488114 0.271257,0.304245 0.477736,0.660673 0.606692,1.04739 0.128805,0.386717 0.177539,0.795627 0.14305,1.201837 0,1.679423 0,3.748712 0,4.153573 -8.99e-4,0.101215 0.02249,0.201231 0.06838,0.2915 0.04603,0.09027 0.112911,0.168242 0.195383,0.227022 0.08232,0.05893 0.177839,0.09702 0.278004,0.111112 0.100316,0.01424 0.202581,0.0039 0.297948,-0.02984 2.431115,-0.873 4.526345,-2.487645 5.989992,-4.615864 1.463797,-2.128219 2.221786,-4.662648 2.167205,-7.245061 0.0141,-1.596801 -0.29075,-3.1803771 -0.896692,-4.6578341 C 22.494612,5.9614032 21.599719,4.6197992 20.468508,3.4927264 19.337296,2.3656537 17.992258,1.4757844 16.512567,0.87531574 15.032875,0.27484714 13.44822,-0.02413516 11.851418,-0.00411706 Z M 4.7139154,17.104974 c 0,0 0,0.164944 0,0.254913 0.016719,0.01679 0.036573,0.03014 0.05845,0.03914 0.021877,0.0091 0.045314,0.0138 0.069006,0.0138 0.023677,0 0.047129,-0.0046 0.069006,-0.0138 0.021863,-0.009 0.041731,-0.02234 0.05845,-0.03914 0,0 0,-0.164943 0,-0.269907 0,-0.104964 -0.1949331,-0.04499 -0.2549125,0.01499 z m -0.5248196,-0.40486 c 0,0 0,0.149948 0.1049639,0.194933 0.012641,0.01574 0.02864,0.02834 0.046799,0.03704 0.018159,0.0085 0.038042,0.01319 0.058165,0.01319 0.020123,0 0.039991,-0.0046 0.05815,-0.01319 0.018174,-0.0087 0.034158,-0.02129 0.046814,-0.03704 0,0 0,-0.149949 -0.104964,-0.194933 -0.1049639,-0.04499 -0.1799381,-0.04499 -0.2099279,0 z m 1.4994847,1.769392 c 0,0 0,0.209927 0,0.314891 0,0.104964 0.2549125,0.119959 0.3148919,0 0.059979,-0.119958 0,-0.209927 0,-0.314891 0,-0.104964 -0.1949331,-0.07497 -0.2549125,0 z M 5.1337712,17.734758 c 0,0 0,0.179938 0,0.299897 0,0.119959 0.2099278,0.164943 0.2849021,0.119959 0.037967,-0.04363 0.058885,-0.09957 0.058885,-0.157446 0,-0.05788 -0.020918,-0.113811 -0.058885,-0.157446 -0.074974,-0.119959 -0.194933,-0.164943 -0.2849021,-0.104964 z"
     fill="#000000"
     id="path1"
     style="fill:#b2b2b2;fill-opacity:1;stroke-width:1.49948" />
</svg>
